<svg id="Layer_1" data-name="Layer 1" xmlns="http://www.w3.org/2000/svg" xmlns:xlink="http://www.w3.org/1999/xlink" viewBox="0 0 85.08 85.08"><defs><style>.cls-1{fill:url(#Безымянный_градиент_58);}.cls-2{fill:url(#Безымянный_градиент_82);}.cls-3{fill:#ff8408;}</style><linearGradient id="Безымянный_градиент_58" x1="58.58" y1="81.12" x2="28.31" y2="8.32" gradientUnits="userSpaceOnUse"><stop offset="0" stop-color="#eef2f5"/><stop offset="0.51" stop-color="#fafbfc"/><stop offset="1" stop-color="#fff"/></linearGradient><linearGradient id="Безымянный_градиент_82" x1="42.61" y1="13.97" x2="56.79" y2="84.08" gradientUnits="userSpaceOnUse"><stop offset="0" stop-color="#eef2f5"/><stop offset="0.4" stop-color="#f7f9fa"/><stop offset="1" stop-color="#fff"/></linearGradient></defs><rect class="cls-1" width="85.08" height="85.08" rx="21.17"/><path class="cls-2" d="M72.14,84.44H27.86a11.81,11.81,0,0,1-11.8-11.8V28.54a12,12,0,0,1,12-12h44.1a11.81,11.81,0,0,1,11.8,11.8V72.64A11.81,11.81,0,0,1,72.14,84.44Z" transform="translate(-7.46 -7.96)"/><path class="cls-3" d="M59.33,41.58a35.13,35.13,0,0,0-25-10.35v7a28.39,28.39,0,0,1,28.4,28.4h7a35.09,35.09,0,0,0-10.35-25Zm0,0" transform="translate(-7.46 -7.96)"/><path class="cls-3" d="M34.26,43v7A16.65,16.65,0,0,1,50.89,66.58h7A23.61,23.61,0,0,0,34.26,43Zm0,0" transform="translate(-7.46 -7.96)"/><path class="cls-3" d="M44.18,61.79a5,5,0,1,1-5-5,5,5,0,0,1,5,5Zm0,0" transform="translate(-7.46 -7.96)"/></svg>