<svg id="Layer_1" data-name="Layer 1" xmlns="http://www.w3.org/2000/svg" xmlns:xlink="http://www.w3.org/1999/xlink" viewBox="0 0 84.56 84.56"><defs><style>.cls-1{fill:url(#Безымянный_градиент_58);}.cls-2{fill:url(#Безымянный_градиент_82);}.cls-3{fill:#2554a2;}</style><linearGradient id="Безымянный_градиент_58" x1="58.25" y1="80.69" x2="28.12" y2="8.21" gradientUnits="userSpaceOnUse"><stop offset="0" stop-color="#eef2f5"/><stop offset="0.51" stop-color="#fafbfc"/><stop offset="1" stop-color="#fff"/></linearGradient><linearGradient id="Безымянный_градиент_82" x1="42.66" y1="13.71" x2="56.75" y2="83.36" gradientUnits="userSpaceOnUse"><stop offset="0" stop-color="#eef2f5"/><stop offset="0.4" stop-color="#f7f9fa"/><stop offset="1" stop-color="#fff"/></linearGradient></defs><rect class="cls-1" width="84.56" height="84.56" rx="20.79"/><path class="cls-2" d="M71.93,83.73H28.07a11.8,11.8,0,0,1-11.8-11.8V28.25a12,12,0,0,1,12-12H71.93a11.8,11.8,0,0,1,11.8,11.8V71.93A11.8,11.8,0,0,1,71.93,83.73Z" transform="translate(-7.72 -7.72)"/><path class="cls-3" d="M59.81,51.5l1-7.85H53.36V38.2a2.76,2.76,0,0,1,2.76-2.76H61v-7H54.19a8.68,8.68,0,0,0-8.68,8.67v6.59H39V51.5h6.47V70.72h7.85V51.5Z" transform="translate(-7.72 -7.72)"/></svg>