<svg id="Layer_1" data-name="Layer 1" xmlns="http://www.w3.org/2000/svg" xmlns:xlink="http://www.w3.org/1999/xlink" viewBox="0 0 84.48 84.48"><defs><style>.cls-1{fill:url(#Безымянный_градиент_58);}.cls-2{fill:url(#Безымянный_градиент_82);}.cls-3{fill:#0084b3;}</style><linearGradient id="Безымянный_градиент_58" x1="58.15" y1="80.51" x2="28.12" y2="8.29" gradientUnits="userSpaceOnUse"><stop offset="0" stop-color="#eef2f5"/><stop offset="0.51" stop-color="#fafbfc"/><stop offset="1" stop-color="#fff"/></linearGradient><linearGradient id="Безымянный_градиент_82" x1="42.39" y1="13.71" x2="56.46" y2="83.29" gradientUnits="userSpaceOnUse"><stop offset="0" stop-color="#eef2f5"/><stop offset="0.4" stop-color="#f7f9fa"/><stop offset="1" stop-color="#fff"/></linearGradient></defs><rect class="cls-1" width="84.48" height="84.48" rx="21.17"/><path class="cls-2" d="M71.62,83.66H27.82A11.81,11.81,0,0,1,16,71.86V28.24a12,12,0,0,1,12-12H71.62a11.81,11.81,0,0,1,11.8,11.8v43.8A11.81,11.81,0,0,1,71.62,83.66Z" transform="translate(-7.48 -7.72)"/><path class="cls-3" d="M36.21,29a4.28,4.28,0,1,1-4.3,4.27A4.3,4.3,0,0,1,36.21,29Zm0,0" transform="translate(-7.48 -7.72)"/><path class="cls-3" d="M38.69,64.56h-5a1.17,1.17,0,0,1-1.18-1.17V42a1.17,1.17,0,0,1,1.18-1.17h5A1.17,1.17,0,0,1,39.87,42V63.39a1.17,1.17,0,0,1-1.18,1.17Zm0,0" transform="translate(-7.48 -7.72)"/><path class="cls-3" d="M67.53,48.34a8.11,8.11,0,0,0-8.11-8.11H58.14a7.2,7.2,0,0,0-5.92,3.09,6.18,6.18,0,0,0-.4.64h-.06V41.33a.49.49,0,0,0-.49-.49H45a.48.48,0,0,0-.49.49V64.08a.48.48,0,0,0,.49.48H51.4a.49.49,0,0,0,.49-.49V50.93A4.17,4.17,0,0,1,56,46.75a4.13,4.13,0,0,1,4.17,4.13v13.2a.49.49,0,0,0,.49.49h6.41a.48.48,0,0,0,.48-.49V48.34Zm0,0" transform="translate(-7.48 -7.72)"/></svg>