<svg id="Layer_1" data-name="Layer 1" xmlns="http://www.w3.org/2000/svg" xmlns:xlink="http://www.w3.org/1999/xlink" viewBox="0 0 84.7 84.7"><defs><style>.cls-1{fill:url(#Безымянный_градиент_58);}.cls-2{fill:url(#Безымянный_градиент_82);}.cls-3{fill:#00acf3;}</style><linearGradient id="Безымянный_градиент_58" x1="58.31" y1="80.74" x2="28.19" y2="8.3" gradientUnits="userSpaceOnUse"><stop offset="0" stop-color="#eef2f5"/><stop offset="0.51" stop-color="#fafbfc"/><stop offset="1" stop-color="#fff"/></linearGradient><linearGradient id="Безымянный_градиент_82" x1="42.57" y1="13.6" x2="56.69" y2="83.38" gradientUnits="userSpaceOnUse"><stop offset="0" stop-color="#eef2f5"/><stop offset="0.4" stop-color="#f7f9fa"/><stop offset="1" stop-color="#fff"/></linearGradient></defs><rect class="cls-1" width="84.7" height="84.7" rx="21.17"/><path class="cls-2" d="M71.91,83.75h-44A11.8,11.8,0,0,1,16.14,72V28.15a12,12,0,0,1,12-12H71.91A11.8,11.8,0,0,1,83.71,28V72A11.8,11.8,0,0,1,71.91,83.75Z" transform="translate(-7.58 -7.61)"/><path class="cls-3" d="M30.37,62.31A22.92,22.92,0,0,0,65.53,42.94c0-.32,0-.63,0-.94.46-.36,3.29-2.63,4-4.09a18.36,18.36,0,0,1-4.55,1.18h0c.21-.13,3.11-2.11,3.5-4.46a28.11,28.11,0,0,1-3.9,1.63c-.38.12-.78.25-1.18.36A8,8,0,0,0,49.45,42.1a7.75,7.75,0,0,0,.21,1.82,24.18,24.18,0,0,1-16.51-8.34s-3.84,5.25,2.29,10.64a8.23,8.23,0,0,1-3.47-1,7.64,7.64,0,0,0,6.36,8,7.35,7.35,0,0,1-3.55.15,7.92,7.92,0,0,0,7.39,5.61,15.46,15.46,0,0,1-11.81,3.38Zm0,0" transform="translate(-7.58 -7.61)"/></svg>